# Blender v2.81 (sub 16) OBJ File: 'pinetree.blend'
# www.blender.org
mtllib pinetree.mtl
o Cone.004_Cone.005
v -0.373537 6.525286 1.625172
v -1.257450 6.800888 1.095232
v -1.661060 6.525286 0.146951
v -1.430201 6.800888 -0.857460
v -0.653055 6.525286 -1.534351
v 0.373537 6.800888 -1.625172
v 1.257450 6.525286 -1.095232
v 0.000000 8.310768 0.000000
v 1.661059 6.800888 -0.146952
v 1.430201 6.525286 0.857460
v 0.653054 6.800888 1.534351
v -0.012132 -0.037123 -1.281260
v 0.013437 2.486036 -0.788733
v 0.495659 -0.030457 -1.271039
v 0.246129 2.498228 -0.754381
v 0.931363 0.015625 -1.115570
v 0.466434 2.499114 -0.641992
v 1.221200 0.025144 -0.835271
v 0.641992 2.499114 -0.466434
v 1.360494 -0.013680 -0.471761
v 0.754706 2.499114 -0.245219
v 1.340857 -0.043152 -0.012447
v 0.793083 2.498818 0.000389
v 1.260839 -0.041806 0.409672
v 0.748954 2.486422 0.242833
v 1.071326 -0.044283 0.789251
v 0.622848 2.471287 0.452311
v 0.797986 -0.047252 1.065454
v 0.428780 2.466228 0.608827
v 0.442784 -0.049036 1.240259
v 0.195936 2.468169 0.704657
v 0.033112 -0.049036 1.305145
v -0.050723 2.466030 0.732865
v -0.387912 -0.045874 1.245007
v -0.286605 2.460830 0.694227
v -0.775459 -0.042004 1.068059
v -0.488420 2.463668 0.598970
v -1.072534 -0.041806 0.779241
v -0.636216 2.465781 0.451335
v -1.260839 -0.041806 0.409670
v -0.719232 2.459713 0.254997
v -1.325724 -0.041806 -0.000001
v -0.733947 2.441110 0.021344
v -1.260838 -0.041806 -0.409673
v -0.684232 2.430527 -0.219980
v -1.072533 -0.041806 -0.779243
v -0.571517 2.430527 -0.441196
v -0.779240 -0.041806 -1.072535
v -0.406835 2.441110 -0.620648
v -0.413166 -0.040740 -1.253115
v -0.208970 2.463836 -0.741725
v -0.024834 1.160519 -0.992160
v 0.278650 1.144042 -0.922202
v 0.555879 1.155210 -0.757403
v 0.782707 1.162464 -0.532294
v 0.945207 1.156543 -0.278124
v 1.025287 1.158212 0.008724
v 0.994798 1.173751 0.332235
v 0.850300 1.164260 0.671664
v 0.625529 1.166800 0.944860
v 0.333071 1.173717 1.106556
v 0.007677 1.170895 1.143768
v -0.315069 1.162012 1.055457
v -0.608439 1.166220 0.861645
v -0.845802 1.177816 0.615266
v -0.975466 1.159305 0.330708
v -0.994102 1.127578 0.018889
v -0.925137 1.110325 -0.298256
v -0.776443 1.110325 -0.590084
v -0.562802 1.127606 -0.827369
v -0.310957 1.160478 -0.963194
v 0.000000 1.530779 -2.762302
v 1.623640 1.987315 -2.234749
v 2.627105 1.530779 -0.853598
v 2.627105 1.987315 0.853598
v 1.623640 1.530779 2.234749
v -0.000000 1.987315 2.762302
v -1.623641 1.530779 2.234749
v 0.000000 4.488441 0.000000
v -2.627105 1.987315 0.853599
v -2.627105 1.530779 -0.853599
v -1.623639 1.987315 -2.234750
v 2.179536 2.926291 -1.231133
v 2.486924 3.340005 0.285091
v 1.844391 2.926291 1.692421
v 0.497364 3.340005 2.453303
v -1.039640 2.926291 2.277107
v -2.179536 3.340005 1.231133
v -2.486923 2.926291 -0.285091
v 0.000000 5.606538 0.000000
v -1.844391 3.340005 -1.692420
v -0.497363 2.926291 -2.453303
v 1.039641 3.340005 -2.277106
v 0.863518 4.219594 2.071524
v -0.519011 4.590518 2.183460
v -1.703294 4.219594 1.461390
v -2.236978 4.590518 0.181118
v -1.916212 4.219594 -1.168335
v -0.863517 4.590518 -2.071524
v 0.519011 4.219594 -2.183460
v 0.000000 6.622617 0.000000
v 1.703294 4.590518 -1.461390
v 2.236978 4.219594 -0.181118
v 1.916211 4.590518 1.168336
v 0.962558 5.500587 1.654804
v -0.193943 5.816986 1.904542
v -1.276365 5.500587 1.426810
v -1.871259 5.816986 0.404084
v -1.751395 5.500587 -0.772987
v -0.962558 5.816986 -1.654804
v 0.193944 5.500587 -1.904542
v 0.000000 7.550371 0.000000
v 1.276365 5.816986 -1.426810
v 1.871259 5.500587 -0.404084
v 1.751395 5.816986 0.772988
v -0.940159 7.498580 0.898184
v -1.288544 7.713476 0.174035
v -1.144749 7.498580 -0.616590
v -0.563699 7.713476 -1.171698
v 0.232665 7.498580 -1.279258
v 0.940159 7.713476 -0.898184
v 1.288543 7.498580 -0.174034
v 0.000000 9.282721 0.000000
v 1.144749 7.713476 0.616590
v 0.563698 7.498580 1.171698
v -0.232666 7.713476 1.279257
vt 0.173593 0.246664
vt 0.173593 0.142850
vt 0.234613 0.226837
vt 0.272326 0.174931
vt 0.272326 0.110770
vt 0.234613 0.058864
vt 0.173593 0.039037
vt 0.112573 0.058864
vt 0.074861 0.110770
vt 0.074861 0.174931
vt 0.112573 0.226837
vt 0.389871 0.246664
vt 0.450891 0.226837
vt 0.488604 0.174931
vt 0.488604 0.110770
vt 0.450891 0.058864
vt 0.389871 0.039037
vt 0.328851 0.058864
vt 0.291139 0.110770
vt 0.291139 0.174931
vt 0.328851 0.226837
vt 0.931785 0.807385
vt 0.931785 0.934650
vt 0.910433 0.934650
vt 0.910433 0.807385
vt 0.889081 0.934650
vt 0.889081 0.807385
vt 0.867729 0.934650
vt 0.867729 0.807385
vt 0.846378 0.934650
vt 0.846378 0.807385
vt 0.825026 0.934650
vt 0.825026 0.807385
vt 0.803674 0.934650
vt 0.803674 0.807385
vt 0.782323 0.934650
vt 0.782323 0.807385
vt 0.760971 0.934650
vt 0.760971 0.807385
vt 0.739619 0.934650
vt 0.739619 0.807385
vt 0.718268 0.934650
vt 0.718268 0.807385
vt 0.696916 0.934650
vt 0.696916 0.807385
vt 0.675564 0.934650
vt 0.675564 0.807385
vt 0.654212 0.934650
vt 0.654212 0.807384
vt 0.632861 0.934650
vt 0.632861 0.807385
vt 0.611509 0.934650
vt 0.611509 0.807385
vt 0.590157 0.934650
vt 0.590157 0.807385
vt 0.568806 0.934650
vt 0.568806 0.807385
vt 0.547454 0.934650
vt 0.547454 0.807385
vt 0.643180 0.711846
vt 0.611509 0.716862
vt 0.579839 0.711846
vt 0.551268 0.697289
vt 0.528594 0.674615
vt 0.514037 0.646045
vt 0.509021 0.614374
vt 0.514037 0.582704
vt 0.528594 0.554133
vt 0.551268 0.531459
vt 0.579838 0.516902
vt 0.611509 0.511886
vt 0.643180 0.516902
vt 0.671750 0.531459
vt 0.694424 0.554133
vt 0.708981 0.582703
vt 0.713997 0.614374
vt 0.708981 0.646045
vt 0.694424 0.674615
vt 0.671750 0.697289
vt 0.526102 0.934650
vt 0.526102 0.807385
vt 0.504750 0.934650
vt 0.504750 0.807385
vt 0.825026 0.716862
vt 0.856697 0.711846
vt 0.885267 0.697289
vt 0.907941 0.674615
vt 0.922498 0.646045
vt 0.927514 0.614374
vt 0.922498 0.582703
vt 0.907941 0.554133
vt 0.885267 0.531459
vt 0.856697 0.516902
vt 0.825026 0.511886
vt 0.793356 0.516902
vt 0.764785 0.531459
vt 0.742111 0.554133
vt 0.727554 0.582704
vt 0.722538 0.614374
vt 0.727554 0.646045
vt 0.742111 0.674615
vt 0.764785 0.697289
vt 0.793356 0.711846
vt 0.526102 0.721133
vt 0.504750 0.721133
vt 0.547454 0.721133
vt 0.568806 0.721133
vt 0.590157 0.721133
vt 0.611509 0.721133
vt 0.632861 0.721133
vt 0.654212 0.721133
vt 0.675564 0.721133
vt 0.696916 0.721133
vt 0.718268 0.721133
vt 0.739619 0.721133
vt 0.760971 0.721133
vt 0.782323 0.721133
vt 0.803674 0.721133
vt 0.825026 0.721133
vt 0.846378 0.721133
vt 0.867730 0.721133
vt 0.889081 0.721133
vt 0.910433 0.721133
vt 0.931785 0.721133
vt 0.173593 0.246664
vt 0.173593 0.142850
vt 0.234613 0.226837
vt 0.272326 0.174931
vt 0.272326 0.110770
vt 0.234613 0.058864
vt 0.173593 0.039037
vt 0.112573 0.058864
vt 0.074861 0.110770
vt 0.074861 0.174931
vt 0.112573 0.226837
vt 0.389871 0.246664
vt 0.450891 0.226837
vt 0.488604 0.174931
vt 0.488604 0.110770
vt 0.450891 0.058864
vt 0.389871 0.039037
vt 0.328851 0.058864
vt 0.291139 0.110770
vt 0.291139 0.174931
vt 0.328851 0.226837
vt 0.173593 0.246664
vt 0.173593 0.142850
vt 0.234613 0.226837
vt 0.272326 0.174931
vt 0.272326 0.110770
vt 0.234613 0.058864
vt 0.173593 0.039037
vt 0.112573 0.058864
vt 0.074861 0.110770
vt 0.074861 0.174931
vt 0.112573 0.226837
vt 0.389871 0.246664
vt 0.450891 0.226837
vt 0.488604 0.174931
vt 0.488604 0.110770
vt 0.450891 0.058864
vt 0.389871 0.039037
vt 0.328851 0.058864
vt 0.291139 0.110770
vt 0.291139 0.174931
vt 0.328851 0.226837
vt 0.173593 0.246664
vt 0.173593 0.142850
vt 0.234613 0.226837
vt 0.272326 0.174931
vt 0.272326 0.110770
vt 0.234613 0.058864
vt 0.173593 0.039037
vt 0.112573 0.058864
vt 0.074861 0.110770
vt 0.074861 0.174931
vt 0.112573 0.226837
vt 0.389871 0.246664
vt 0.450891 0.226837
vt 0.488604 0.174931
vt 0.488604 0.110770
vt 0.450891 0.058864
vt 0.389871 0.039037
vt 0.328851 0.058864
vt 0.291139 0.110770
vt 0.291139 0.174931
vt 0.328851 0.226837
vt 0.173593 0.246664
vt 0.173593 0.142850
vt 0.234613 0.226837
vt 0.272326 0.174931
vt 0.272326 0.110770
vt 0.234613 0.058864
vt 0.173593 0.039037
vt 0.112573 0.058864
vt 0.074861 0.110770
vt 0.074861 0.174931
vt 0.112573 0.226837
vt 0.389871 0.246664
vt 0.450891 0.226837
vt 0.488604 0.174931
vt 0.488604 0.110770
vt 0.450891 0.058864
vt 0.389871 0.039037
vt 0.328851 0.058864
vt 0.291139 0.110770
vt 0.291139 0.174931
vt 0.328851 0.226837
vt 0.136683 0.162142
vt 0.136683 0.110235
vt 0.167193 0.152228
vt 0.186049 0.126275
vt 0.186049 0.094195
vt 0.167193 0.068242
vt 0.136683 0.058328
vt 0.106173 0.068242
vt 0.087317 0.094195
vt 0.087317 0.126275
vt 0.106173 0.152228
vt 0.244822 0.162142
vt 0.275332 0.152228
vt 0.294188 0.126275
vt 0.294188 0.094195
vt 0.275332 0.068242
vt 0.244822 0.058328
vt 0.214312 0.068242
vt 0.195456 0.094195
vt 0.195456 0.126275
vt 0.214312 0.152228
vn -0.2079 0.6819 0.7013
vn -0.7232 0.6819 0.1097
vn -0.7312 0.6819 0.0190
vn -0.3278 0.6819 -0.6539
vn -0.2441 0.6819 -0.6896
vn 0.5206 0.6819 -0.5138
vn 0.5804 0.6819 -0.4452
vn 0.6496 0.6819 0.3364
vn 0.6028 0.6819 0.4144
vn -0.1192 0.6819 0.7217
vn 0.0000 -1.0000 -0.0000
vn 0.1903 0.1343 -0.9725
vn 0.4815 0.1130 -0.8691
vn 0.7005 0.1079 -0.7055
vn 0.8594 0.1245 -0.4960
vn 0.9644 0.1539 -0.2150
vn 0.9753 0.1804 0.1276
vn 0.8732 0.2096 0.4399
vn 0.6914 0.2564 0.6754
vn 0.4243 0.2979 0.8551
vn 0.1056 0.3050 0.9465
vn -0.2196 0.2760 0.9357
vn -0.4882 0.2302 0.8418
vn -0.6968 0.2024 0.6882
vn -0.9002 0.1979 0.3880
vn -0.9800 0.1948 0.0419
vn -0.9586 0.1889 -0.2131
vn -0.8754 0.1862 -0.4461
vn -0.7334 0.1887 -0.6531
vn -0.0345 0.9994 0.0062
vn -0.5046 0.1876 -0.8427
vn -0.1528 0.1656 -0.9743
vn 0.0078 -0.9999 -0.0098
vn -0.0817 0.2367 -0.9681
vn -0.4519 0.2538 -0.8552
vn -0.6991 0.2776 -0.6589
vn -0.8526 0.2904 -0.4344
vn -0.9426 0.2811 -0.1803
vn -0.9623 0.2530 0.1003
vn -0.8782 0.2280 0.4204
vn -0.6883 0.2172 0.6921
vn -0.4680 0.1880 0.8635
vn -0.1948 0.1440 0.9702
vn 0.1360 0.1262 0.9826
vn 0.4571 0.1445 0.8776
vn 0.7282 0.1832 0.6604
vn 0.8851 0.2112 0.4147
vn 0.9623 0.2348 0.1373
vn 0.9519 0.2993 -0.0660
vn 0.8375 0.3918 -0.3808
vn 0.6291 0.4156 -0.6569
vn 0.3591 0.3556 -0.8629
vn 0.0980 0.2673 -0.9586
vn 0.0455 0.6819 -0.7301
vn 0.6803 0.6819 -0.2689
vn 0.7084 0.6819 -0.1823
vn 0.4659 0.6819 0.5639
vn 0.3923 0.6819 0.6174
vn -0.3923 0.6819 0.6174
vn -0.4659 0.6819 0.5639
vn -0.7084 0.6819 -0.1823
vn -0.6803 0.6819 -0.2689
vn -0.0455 0.6819 -0.7301
vn 0.6580 0.6819 -0.3195
vn 0.5687 0.6819 0.4601
vn 0.5072 0.6819 0.5271
vn -0.2618 0.6819 0.6830
vn -0.3446 0.6819 0.6452
vn -0.7305 0.6819 -0.0380
vn -0.7201 0.6819 -0.1283
vn -0.1896 0.6819 -0.7065
vn -0.1005 0.6819 -0.7246
vn 0.6133 0.6819 -0.3987
vn 0.2389 0.6819 0.6914
vn -0.5245 0.6819 0.5099
vn -0.5837 0.6819 0.4409
vn -0.6470 0.6819 -0.3412
vn -0.5997 0.6819 -0.4189
vn 0.1246 0.6819 -0.7208
vn 0.2131 0.6819 -0.6998
vn 0.7240 0.6819 -0.1043
vn 0.7314 0.6819 -0.0136
vn 0.3229 0.6819 0.6564
vn 0.3278 0.6819 0.6540
vn -0.4529 0.6819 0.5745
vn -0.5207 0.6819 0.5138
vn -0.6863 0.6819 -0.2532
vn -0.6495 0.6819 -0.3364
vn 0.0287 0.6819 -0.7309
vn 0.1192 0.6819 -0.7217
vn 0.7040 0.6819 -0.1986
vn 0.7232 0.6819 -0.1096
vn 0.4064 0.6819 0.6082
vn -0.6483 0.5862 0.4859
vn -0.7540 0.5862 -0.2965
vn -0.6624 0.5862 -0.4664
vn 0.0490 0.5862 -0.8087
vn 0.2389 0.5862 -0.7741
vn 0.7842 0.5862 -0.2033
vn 0.8101 0.5862 -0.0120
vn 0.4357 0.5862 0.6830
vn 0.2617 0.5862 0.7667
vn -0.5149 0.5862 0.6254
g Cone.004_Cone.005_Material.004
usemtl Material.004
s off
f 1/1/1 8/2/1 2/3/1
f 2/3/2 8/2/2 3/4/2
f 3/4/3 8/2/3 4/5/3
f 4/5/4 8/2/4 5/6/4
f 5/6/5 8/2/5 6/7/5
f 6/7/6 8/2/6 7/8/6
f 7/8/7 8/2/7 9/9/7
f 9/9/8 8/2/8 10/10/8
f 10/10/9 8/2/9 11/11/9
f 11/11/10 8/2/10 1/1/10
f 1/12/11 2/13/11 3/14/11 4/15/11 5/16/11 6/17/11 7/18/11 9/19/11 10/20/11 11/21/11
g Cone.004_Cone.005_Material.008
usemtl Material.008
f 52/22/12 13/23/12 15/24/12 53/25/12
f 53/25/13 15/24/13 17/26/13 54/27/13
f 54/27/14 17/26/14 19/28/14 55/29/14
f 55/29/15 19/28/15 21/30/15 56/31/15
f 56/31/16 21/30/16 23/32/16 57/33/16
f 57/33/17 23/32/17 25/34/17 58/35/17
f 58/35/18 25/34/18 27/36/18 59/37/18
f 59/37/19 27/36/19 29/38/19 60/39/19
f 60/39/20 29/38/20 31/40/20 61/41/20
f 61/41/21 31/40/21 33/42/21 62/43/21
f 62/43/22 33/42/22 35/44/22 63/45/22
f 63/45/23 35/44/23 37/46/23 64/47/23
f 64/47/24 37/46/24 39/48/24 65/49/24
f 65/49/25 39/48/25 41/50/25 66/51/25
f 66/51/26 41/50/26 43/52/26 67/53/26
f 67/53/27 43/52/27 45/54/27 68/55/27
f 68/55/28 45/54/28 47/56/28 69/57/28
f 69/57/29 47/56/29 49/58/29 70/59/29
f 15/60/30 13/61/30 51/62/30 49/63/30 47/64/30 45/65/30 43/66/30 41/67/30 39/68/30 37/69/30 35/70/30 33/71/30 31/72/30 29/73/30 27/74/30 25/75/30 23/76/30 21/77/30 19/78/30 17/79/30
f 70/59/31 49/58/31 51/80/31 71/81/31
f 71/81/32 51/80/32 13/82/32 52/83/32
f 12/84/33 14/85/33 16/86/33 18/87/33 20/88/33 22/89/33 24/90/33 26/91/33 28/92/33 30/93/33 32/94/33 34/95/33 36/96/33 38/97/33 40/98/33 42/99/33 44/100/33 46/101/33 48/102/33 50/103/33
f 50/104/34 71/81/34 52/83/34 12/105/34
f 48/106/35 70/59/35 71/81/35 50/104/35
f 46/107/36 69/57/36 70/59/36 48/106/36
f 44/108/37 68/55/37 69/57/37 46/107/37
f 42/109/38 67/53/38 68/55/38 44/108/38
f 40/110/39 66/51/39 67/53/39 42/109/39
f 38/111/40 65/49/40 66/51/40 40/110/40
f 36/112/41 64/47/41 65/49/41 38/111/41
f 34/113/42 63/45/42 64/47/42 36/112/42
f 32/114/43 62/43/43 63/45/43 34/113/43
f 30/115/44 61/41/44 62/43/44 32/114/44
f 28/116/45 60/39/45 61/41/45 30/115/45
f 26/117/46 59/37/46 60/39/46 28/116/46
f 24/118/47 58/35/47 59/37/47 26/117/47
f 22/119/48 57/33/48 58/35/48 24/118/48
f 20/120/49 56/31/49 57/33/49 22/119/49
f 18/121/50 55/29/50 56/31/50 20/120/50
f 16/122/51 54/27/51 55/29/51 18/121/51
f 14/123/52 53/25/52 54/27/52 16/122/52
f 12/124/53 52/22/53 53/25/53 14/123/53
g Cone.004_Cone.005_Material.003
usemtl Material.003
f 72/125/54 79/126/54 73/127/54
f 73/127/55 79/126/55 74/128/55
f 74/128/56 79/126/56 75/129/56
f 75/129/57 79/126/57 76/130/57
f 76/130/58 79/126/58 77/131/58
f 77/131/59 79/126/59 78/132/59
f 78/132/60 79/126/60 80/133/60
f 80/133/61 79/126/61 81/134/61
f 81/134/62 79/126/62 82/135/62
f 82/135/63 79/126/63 72/125/63
f 72/136/11 73/137/11 74/138/11 75/139/11 76/140/11 77/141/11 78/142/11 80/143/11 81/144/11 82/145/11
g Cone.004_Cone.005_Material.002
usemtl Material.002
f 83/146/64 90/147/64 84/148/64
f 84/148/65 90/147/65 85/149/65
f 85/149/66 90/147/66 86/150/66
f 86/150/67 90/147/67 87/151/67
f 87/151/68 90/147/68 88/152/68
f 88/152/69 90/147/69 89/153/69
f 89/153/70 90/147/70 91/154/70
f 91/154/71 90/147/71 92/155/71
f 92/155/72 90/147/72 93/156/72
f 93/156/73 90/147/73 83/146/73
f 83/157/11 84/158/11 85/159/11 86/160/11 87/161/11 88/162/11 89/163/11 91/164/11 92/165/11 93/166/11
g Cone.004_Cone.005_Material.006
usemtl Material.006
f 94/167/74 101/168/74 95/169/74
f 95/169/75 101/168/75 96/170/75
f 96/170/76 101/168/76 97/171/76
f 97/171/77 101/168/77 98/172/77
f 98/172/78 101/168/78 99/173/78
f 99/173/79 101/168/79 100/174/79
f 100/174/80 101/168/80 102/175/80
f 102/175/81 101/168/81 103/176/81
f 103/176/82 101/168/82 104/177/82
f 104/177/83 101/168/83 94/167/83
f 94/178/11 95/179/11 96/180/11 97/181/11 98/182/11 99/183/11 100/184/11 102/185/11 103/186/11 104/187/11
g Cone.004_Cone.005_Material.005
usemtl Material.005
f 105/188/84 112/189/84 106/190/84
f 106/190/85 112/189/85 107/191/85
f 107/191/86 112/189/86 108/192/86
f 108/192/87 112/189/87 109/193/87
f 109/193/88 112/189/88 110/194/88
f 110/194/89 112/189/89 111/195/89
f 111/195/90 112/189/90 113/196/90
f 113/196/91 112/189/91 114/197/91
f 114/197/92 112/189/92 115/198/92
f 115/198/93 112/189/93 105/188/93
f 105/199/11 106/200/11 107/201/11 108/202/11 109/203/11 110/204/11 111/205/11 113/206/11 114/207/11 115/208/11
f 116/209/94 123/210/94 117/211/94
f 117/211/95 123/210/95 118/212/95
f 118/212/96 123/210/96 119/213/96
f 119/213/97 123/210/97 120/214/97
f 120/214/98 123/210/98 121/215/98
f 121/215/99 123/210/99 122/216/99
f 122/216/100 123/210/100 124/217/100
f 124/217/101 123/210/101 125/218/101
f 125/218/102 123/210/102 126/219/102
f 126/219/103 123/210/103 116/209/103
f 116/220/11 117/221/11 118/222/11 119/223/11 120/224/11 121/225/11 122/226/11 124/227/11 125/228/11 126/229/11
