# Blender v3.3.1 OBJ File: 'maison.blend'
# www.blender.org
mtllib maison.mtl
o Cube
v 4.340183 1.878994 -1.000000
v 4.340183 -1.000000 -1.000000
v 4.340183 1.878994 2.868272
v 4.340183 -1.000000 2.868272
v -1.000000 1.878994 -1.000000
v -1.000000 -1.000000 -1.000000
v -1.000000 1.878994 2.868272
v -1.000000 -1.000000 2.868272
v -1.000000 -1.000000 0.934136
v 4.340183 3.426092 0.934136
v -1.000000 3.426092 0.934136
v 4.340183 -1.000000 0.934136
vt 0.625000 0.625000
vt 0.875000 0.625000
vt 0.875000 0.750000
vt 0.625000 0.750000
vt 0.375000 0.750000
vt 0.625000 1.000000
vt 0.375000 1.000000
vt 0.375000 0.125000
vt 0.625000 0.125000
vt 0.625000 0.250000
vt 0.375000 0.250000
vt 0.125000 0.625000
vt 0.375000 0.625000
vt 0.125000 0.750000
vt 0.625000 0.500000
vt 0.375000 0.500000
vt 0.125000 0.500000
vt 0.375000 0.000000
vt 0.625000 0.000000
vt 0.875000 0.500000
vn 0.0000 0.7809 0.6246
vn 0.0000 0.0000 1.0000
vn -1.0000 0.0000 0.0000
vn 0.0000 -1.0000 0.0000
vn 1.0000 0.0000 0.0000
vn 0.0000 0.0000 -1.0000
vn 0.0000 0.7809 -0.6246
usemtl Material
s off
f 10/1/1 11/2/1 7/3/1 3/4/1
f 4/5/2 3/4/2 7/6/2 8/7/2
f 9/8/3 11/9/3 5/10/3 6/11/3
f 9/12/4 12/13/4 4/5/4 8/14/4
f 12/13/5 10/1/5 3/4/5 4/5/5
f 6/11/6 5/10/6 1/15/6 2/16/6
f 2/16/5 1/15/5 10/1/5 12/13/5
f 6/17/4 2/16/4 12/13/4 9/12/4
f 8/18/3 7/19/3 11/9/3 9/8/3
f 1/15/7 5/20/7 11/2/7 10/1/7
o toit_Cube.001
v 5.390784 1.453016 -1.625103
v 5.404839 1.448194 -1.835293
v 5.357455 1.493475 3.388310
v -1.474593 1.436690 -1.913200
v -1.472539 1.441934 -1.700157
v -1.655595 3.820673 0.934136
v -1.751560 1.354061 3.432601
v 5.228995 3.791842 0.934136
v -1.751030 1.338500 3.639228
v 5.228995 3.584659 0.934136
v -1.655595 3.613489 0.934136
v 5.390741 1.476925 3.600179
v 0.039950 3.727245 0.934136
v 1.822739 3.777431 0.934136
v 3.454312 3.640712 0.934136
v 3.302431 1.508189 3.313099
v 1.612469 1.432144 3.385458
v 0.170063 1.508189 3.313099
v 0.156634 1.477546 -1.458976
v 1.736247 1.471910 -1.497143
v 3.394191 1.466816 -1.531637
v 0.156049 1.473304 -1.665248
v 1.736247 1.467671 -1.703390
v 3.398190 1.462318 -1.739643
v 3.302431 1.493011 3.519725
v 1.603844 1.411667 3.597126
v 0.170063 1.493011 3.519725
v 0.039950 3.520062 0.934136
v 1.736248 3.426095 0.934136
v 3.483143 3.505605 0.934136
vt 0.812500 0.625000
vt 0.812500 0.750000
vt 0.875000 0.750000
vt 0.875000 0.625000
vt 0.625000 0.625000
vt 0.625000 0.500000
vt 0.625000 0.500000
vt 0.625000 0.625000
vt 0.687500 0.750000
vt 0.625000 0.750000
vt 0.625000 0.750000
vt 0.687500 0.750000
vt 0.812500 0.500000
vt 0.875000 0.500000
vt 0.875000 0.500000
vt 0.812500 0.500000
vt 0.875000 0.625000
vt 0.812500 0.625000
vt 0.875000 0.750000
vt 0.812500 0.750000
vt 0.687500 0.625000
vt 0.687500 0.500000
vt 0.750000 0.625000
vt 0.750000 0.500000
vt 0.687500 0.625000
vt 0.750000 0.625000
vt 0.750000 0.750000
vt 0.687500 0.500000
vt 0.750000 0.500000
vt 0.750000 0.750000
vn -0.0091 -0.7523 -0.6588
vn 0.9979 -0.0019 0.0649
vn -0.0046 -0.9972 -0.0752
vn 0.0188 -0.9996 0.0225
vn 0.0611 0.7616 -0.6452
vn 0.0094 0.7465 0.6654
vn -0.0597 -0.7668 0.6392
vn -0.9986 -0.0427 -0.0308
vn 0.9929 -0.0566 -0.1050
vn -0.9996 0.0214 -0.0173
vn 0.0294 -0.7690 0.6386
vn 0.0233 -0.7750 0.6315
vn -0.0160 -0.7702 0.6376
vn -0.0401 0.7614 0.6471
vn 0.0278 0.7569 0.6529
vn -0.0086 0.7521 0.6590
vn -0.0440 0.7680 -0.6390
vn 0.0258 0.7632 -0.6456
vn -0.0174 0.7537 -0.6569
vn -0.0059 -0.9997 0.0220
vn -0.0027 -0.9998 0.0211
vn -0.0031 -0.9998 0.0206
vn 0.0753 -0.9944 -0.0741
vn -0.0500 -0.9951 -0.0858
vn 0.0425 -0.9956 -0.0840
vn 0.0257 -0.7633 -0.6455
vn 0.0215 -0.7714 -0.6360
vn -0.0270 -0.7695 -0.6381
usemtl Material
s off
f 40/21/8 30/22/8 19/23/8 23/24/8
f 22/25/9 13/26/9 14/27/9 20/28/9
f 28/29/10 15/30/10 24/31/10 37/32/10
f 31/33/11 17/34/11 16/35/11 34/36/11
f 34/36/12 16/35/12 18/37/12 25/38/12
f 25/38/13 18/37/13 21/39/13 39/40/13
f 31/33/14 40/21/14 23/24/14 17/34/14
f 17/34/15 23/24/15 18/37/15 16/35/15
f 15/30/16 22/25/16 20/28/16 24/31/16
f 23/24/17 19/23/17 21/39/17 18/37/17
f 13/26/18 22/25/18 42/41/18 33/42/18
f 33/42/19 42/41/19 41/43/19 32/44/19
f 32/44/20 41/43/20 40/21/20 31/33/20
f 20/28/21 27/45/21 37/32/21 24/31/21
f 27/45/22 26/46/22 38/47/22 37/32/22
f 26/46/23 25/38/23 39/40/23 38/47/23
f 14/27/24 36/48/24 27/45/24 20/28/24
f 36/48/25 35/49/25 26/46/25 27/45/25
f 35/49/26 34/36/26 25/38/26 26/46/26
f 13/26/27 33/42/27 36/48/27 14/27/27
f 33/42/28 32/44/28 35/49/28 36/48/28
f 32/44/29 31/33/29 34/36/29 35/49/29
f 19/23/30 30/22/30 39/40/30 21/39/30
f 30/22/31 29/50/31 38/47/31 39/40/31
f 29/50/32 28/29/32 37/32/32 38/47/32
f 22/25/33 15/30/33 28/29/33 42/41/33
f 42/41/34 28/29/34 29/50/34 41/43/34
f 41/43/35 29/50/35 30/22/35 40/21/35
o Cube.001_Cube.002
v -0.801828 -1.000000 -0.776668
v -0.801828 1.891948 -0.776668
v -0.801828 -1.000000 -1.144957
v -0.801828 1.891948 -1.144957
v -1.134575 -1.000000 -0.776668
v -1.134575 1.891948 -0.776668
v -1.134575 -1.000000 -1.144957
v -1.134575 1.891948 -1.144957
v -0.802506 -1.000000 3.029562
v -0.801828 1.891948 2.961639
v -0.801828 -1.000000 2.656101
v -0.801828 1.891948 2.593350
v -1.147853 -1.000000 3.034268
v -1.134575 1.891948 2.961639
v -1.134610 -1.000000 2.660285
v -1.134575 1.891948 2.593350
v 4.434560 -1.000000 -0.776727
v 4.414694 1.891948 -0.776668
v 4.492048 -1.000000 -1.179286
v 4.414694 1.891948 -1.144957
v 4.082923 -1.000000 -0.776668
v 4.081946 1.891948 -0.776668
v 4.085901 -1.000000 -1.144957
v 4.081946 1.891948 -1.144957
v 4.414694 -1.000000 2.961639
v 4.414694 1.891948 2.961639
v 4.414694 -1.000000 2.593350
v 4.414694 1.891948 2.593350
v 4.081946 -1.000000 2.961639
v 4.081946 1.891948 2.961639
v 4.081946 -1.000000 2.593350
v 4.081946 1.891948 2.593350
vt 0.375000 0.000000
vt 0.625000 0.000000
vt 0.625000 0.250000
vt 0.375000 0.250000
vt 0.625000 0.500000
vt 0.375000 0.500000
vt 0.625000 0.750000
vt 0.375000 0.750000
vt 0.625000 1.000000
vt 0.375000 1.000000
vt 0.125000 0.500000
vt 0.125000 0.750000
vt 0.875000 0.500000
vt 0.875000 0.750000
vt 0.375000 0.000000
vt 0.625000 0.000000
vt 0.625000 0.250000
vt 0.375000 0.250000
vt 0.625000 0.500000
vt 0.375000 0.500000
vt 0.625000 0.750000
vt 0.375000 0.750000
vt 0.625000 1.000000
vt 0.375000 1.000000
vt 0.125000 0.500000
vt 0.125000 0.750000
vt 0.875000 0.500000
vt 0.875000 0.750000
vt 0.375000 0.000000
vt 0.625000 0.000000
vt 0.625000 0.250000
vt 0.375000 0.250000
vt 0.625000 0.500000
vt 0.375000 0.500000
vt 0.625000 0.750000
vt 0.375000 0.750000
vt 0.625000 1.000000
vt 0.375000 1.000000
vt 0.125000 0.500000
vt 0.125000 0.750000
vt 0.875000 0.500000
vt 0.875000 0.750000
vt 0.375000 0.000000
vt 0.625000 0.000000
vt 0.625000 0.250000
vt 0.375000 0.250000
vt 0.625000 0.500000
vt 0.375000 0.500000
vt 0.625000 0.750000
vt 0.375000 0.750000
vt 0.625000 1.000000
vt 0.375000 1.000000
vt 0.125000 0.500000
vt 0.125000 0.750000
vt 0.875000 0.500000
vt 0.875000 0.750000
vn -1.0000 0.0000 0.0000
vn 0.0000 0.0000 1.0000
vn 1.0000 0.0000 0.0000
vn 0.0000 0.0000 -1.0000
vn 0.0000 1.0000 0.0000
vn 0.0000 -1.0000 0.0000
vn -1.0000 0.0001 -0.0009
vn 0.0063 0.0224 0.9997
vn 0.9998 -0.0019 0.0178
vn -0.0069 -0.0243 -0.9997
vn -0.9971 -0.0163 -0.0744
vn 0.0464 -0.0053 0.9989
vn 1.0000 0.0009 0.0040
vn -0.0001 0.0000 -1.0000
usemtl None
s off
f 43/51/36 44/52/36 46/53/36 45/54/36
f 45/54/37 46/53/37 50/55/37 49/56/37
f 49/56/38 50/55/38 48/57/38 47/58/38
f 47/58/39 48/57/39 44/59/39 43/60/39
f 45/61/40 49/56/40 47/58/40 43/62/40
f 50/55/41 46/63/41 44/64/41 48/57/41
f 51/65/42 52/66/42 54/67/42 53/68/42
f 53/68/43 54/67/43 58/69/43 57/70/43
f 57/70/44 58/69/44 56/71/44 55/72/44
f 55/72/45 56/71/45 52/73/45 51/74/45
f 53/75/40 57/70/40 55/72/40 51/76/40
f 58/69/41 54/77/41 52/78/41 56/71/41
f 59/79/46 60/80/46 62/81/46 61/82/46
f 61/82/47 62/81/47 66/83/47 65/84/47
f 65/84/48 66/83/48 64/85/48 63/86/48
f 63/86/49 64/85/49 60/87/49 59/88/49
f 61/89/40 65/84/40 63/86/40 59/90/40
f 66/83/41 62/91/41 60/92/41 64/85/41
f 67/93/36 68/94/36 70/95/36 69/96/36
f 69/96/37 70/95/37 74/97/37 73/98/37
f 73/98/38 74/97/38 72/99/38 71/100/38
f 71/100/39 72/99/39 68/101/39 67/102/39
f 69/103/40 73/98/40 71/100/40 67/104/40
f 74/97/41 70/105/41 68/106/41 72/99/41
o Cube.002_Cube.003
v 1.565787 -1.000000 2.897329
v 1.565787 0.749846 2.897329
v 1.315633 -1.000000 2.739404
v 1.315633 1.000000 2.739404
v 2.576460 -1.000000 2.897329
v 2.576460 0.749846 2.897329
v 2.826615 -1.000000 2.739404
v 2.826615 1.000000 2.739404
v 1.315633 -1.000000 3.064502
v 1.315633 1.000000 3.064502
v 2.826615 1.000000 3.064502
v 2.826615 -1.000000 3.064502
v 1.502972 -1.000000 3.064502
v 1.502972 0.812661 3.064502
v 2.639276 0.812661 3.064502
v 2.639276 -1.000000 3.064502
vt 0.375000 0.000000
vt 0.625000 0.000000
vt 0.625000 0.250000
vt 0.375000 0.250000
vt 0.375000 0.500000
vt 0.625000 0.500000
vt 0.625000 0.750000
vt 0.375000 0.750000
vt 0.406269 0.791389
vt 0.593731 0.791389
vt 0.593731 0.958611
vt 0.406269 0.958611
vt 0.875000 0.500000
vt 0.875000 0.750000
vt 0.398417 0.969004
vt 0.601583 0.969004
vt 0.625000 1.000000
vt 0.375000 1.000000
vt 0.601583 0.780996
vt 0.398417 0.780996
vn -1.0000 0.0000 0.0000
vn 1.0000 0.0000 0.0000
vn 0.0000 0.0000 1.0000
vn 0.0000 1.0000 0.0000
vn 0.9361 0.0000 0.3517
vn -0.9361 0.0000 0.3517
vn 0.0000 -0.9361 0.3517
usemtl None
s off
f 83/107/50 84/108/50 78/109/50 77/110/50
f 81/111/51 82/112/51 85/113/51 86/114/51
f 79/115/52 80/116/52 76/117/52 75/118/52
f 82/112/53 78/119/53 84/120/53 85/113/53
f 87/121/52 88/122/52 84/123/52 83/124/52
f 89/125/52 90/126/52 86/114/52 85/113/52
f 88/122/52 89/125/52 85/113/52 84/123/52
f 75/118/54 76/117/54 88/122/54 87/121/54
f 80/116/55 79/115/55 90/126/55 89/125/55
f 76/117/56 80/116/56 89/125/56 88/122/56
o Cube.003_Cube.004
v 4.957914 -0.994888 2.109078
v 4.779281 -0.994888 2.287711
v 4.432708 3.617826 1.941138
v 4.611341 3.617826 1.762505
v 4.432514 1.583674 1.941138
v 4.611341 1.583674 1.762311
v 4.957914 0.901146 2.108884
v 4.779087 0.901146 2.287711
v 4.812422 -0.994888 1.053797
v 4.957914 -0.994888 1.199289
v 4.611341 3.617826 1.545863
v 4.465848 3.617826 1.400370
v 4.611341 1.583674 1.546021
v 4.465691 1.583674 1.400370
v 4.812263 0.901146 1.053797
v 4.957914 0.901146 1.199447
v 4.432610 2.586984 1.941138
v 4.611341 2.586984 1.762407
v 4.611341 2.586984 1.545943
v 4.465769 2.586984 1.400370
v 3.893269 -0.994888 2.287711
v 3.724000 -0.994888 2.118442
v 4.070573 3.617826 1.772373
v 4.239338 3.617826 1.941138
v 4.239849 1.583674 1.941138
v 4.070573 1.583674 1.771862
v 3.724000 0.901146 2.118296
v 3.893414 0.901146 2.287711
v 4.070573 2.586984 1.772248
v 4.239463 2.586984 1.941138
v 3.724000 -0.994888 1.211290
v 3.881492 -0.994888 1.053797
v 4.227596 3.617826 1.400370
v 4.070573 3.617826 1.557394
v 4.228072 1.583674 1.400370
v 4.070573 1.583674 1.557869
v 3.724000 0.901146 1.211425
v 3.881628 0.901146 1.053797
v 4.070573 2.586984 1.557510
v 4.227713 2.586984 1.400370
vt 0.514753 0.322813
vt 0.569130 0.322647
vt 0.569130 0.432701
vt 0.514753 0.432665
vt 0.569130 0.567299
vt 0.625000 0.567262
vt 0.625000 0.667417
vt 0.569130 0.667371
vt 0.514753 0.078257
vt 0.569130 0.078079
vt 0.569130 0.177353
vt 0.514753 0.177187
vt 0.625000 0.078021
vt 0.625000 0.177407
vt 0.692262 0.500000
vt 0.802407 0.500000
vt 0.875000 0.572593
vt 0.875000 0.671979
vt 0.796979 0.750000
vt 0.707583 0.750000
vt 0.477761 0.529510
vt 0.514753 0.567335
vt 0.514753 0.667327
vt 0.477761 0.713768
vt 0.514753 0.832673
vt 0.569130 0.832629
vt 0.569130 0.921921
vt 0.514753 0.921743
vt 0.375000 0.786192
vt 0.477761 0.786232
vt 0.477761 0.965675
vt 0.375000 0.965705
vt 0.375000 0.529478
vt 0.375000 0.713808
vt 0.625000 0.832583
vt 0.625000 0.921979
vt 0.125000 0.531909
vt 0.156909 0.500000
vt 0.345522 0.500000
vt 0.338808 0.750000
vt 0.159295 0.750000
vt 0.125000 0.715705
vt 0.477761 0.281937
vt 0.477761 0.470490
vt 0.375000 0.470522
vt 0.375000 0.281909
vt 0.625000 0.432738
vt 0.477761 0.034325
vt 0.477761 0.218063
vt 0.569130 0.000000
vt 0.625000 0.000000
vt 0.480837 0.000000
vt 0.514753 0.000000
vt 0.375000 0.000000
vt 0.477761 0.000000
vt 0.375000 0.034295
vt 0.625000 0.322593
vt 0.375000 0.218091
vn 0.0000 0.0000 -1.0000
vn 1.0000 0.0000 0.0000
vn -1.0000 -0.0000 0.0000
vn 0.0000 1.0000 0.0000
vn 0.8916 0.4528 0.0000
vn 0.0000 0.0000 1.0000
vn 0.0000 -1.0000 -0.0000
vn 0.7071 0.0001 0.7071
vn 0.7071 -0.0001 0.7071
vn 0.5744 0.5833 0.5744
vn 0.0000 0.4528 -0.8916
vn 0.7071 0.0001 -0.7071
vn 0.7071 -0.0001 -0.7071
vn 0.5744 0.5833 -0.5744
vn -0.8916 0.4528 0.0000
vn 0.0000 0.4528 0.8916
vn -0.7071 -0.0001 0.7071
vn -0.5744 0.5832 0.5744
vn -0.7071 0.0001 0.7071
vn -0.7071 -0.0003 0.7071
vn -0.7071 0.0001 -0.7071
vn -0.7071 -0.0003 -0.7071
vn -0.5744 0.5832 -0.5744
vn -0.7071 -0.0001 -0.7071
usemtl None
s off
f 125/127/57 130/128/57 110/129/57 104/130/57
f 109/131/58 101/132/58 94/133/58 108/134/58
f 116/135/59 119/136/59 129/137/59 126/138/59
f 119/136/59 113/139/59 124/140/59 129/137/59
f 101/132/60 102/141/60 123/142/60 124/143/60 113/144/60 114/145/60 93/146/60 94/133/60
f 106/147/61 103/148/61 96/149/61 97/150/61
f 95/151/62 107/152/62 120/153/62 115/154/62
f 92/155/62 98/156/62 118/157/62 111/158/62
f 100/159/58 106/147/58 97/150/58 91/160/58
f 107/152/62 93/161/62 114/162/62 120/153/62
f 121/163/63 122/164/63 99/165/63 100/159/63 91/160/63 92/166/63 111/167/63 112/168/63
f 98/156/64 92/155/64 91/160/64 97/150/64
f 107/152/65 95/151/65 96/149/65 108/134/65
f 95/151/66 98/156/66 97/150/66 96/149/66
f 128/169/67 125/127/67 104/130/67 105/170/67
f 106/147/68 100/159/68 99/171/68 105/170/68
f 109/131/69 103/148/69 104/130/69 110/129/69
f 103/148/70 106/147/70 105/170/70 104/130/70
f 122/172/57 128/169/57 105/170/57 99/171/57
f 101/132/69 109/131/69 110/129/69 102/173/69
f 93/161/65 107/152/65 108/134/65 94/133/65
f 117/174/71 116/135/71 126/138/71 127/175/71
f 103/148/58 109/131/58 108/134/58 96/149/58
f 98/156/72 95/151/72 115/154/72 118/157/72
f 120/176/73 114/177/73 113/139/73 119/136/73
f 118/178/74 115/179/74 116/135/74 117/174/74
f 111/180/75 118/181/75 117/174/75 112/182/75
f 115/179/76 120/176/76 119/136/76 116/135/76
f 130/128/57 123/183/57 102/173/57 110/129/57
f 128/169/77 122/172/77 121/184/77 127/175/77
f 130/128/78 125/127/78 126/138/78 129/137/78
f 125/127/79 128/169/79 127/175/79 126/138/79
f 123/183/80 130/128/80 129/137/80 124/140/80
f 112/182/59 117/174/59 127/175/59 121/184/59
o Cube.004_Cube.005
v -1.274663 1.639758 2.849599
v -1.274663 2.002225 2.849599
v -1.274663 1.639758 2.487132
v -1.274663 2.002225 2.487132
v -0.912196 1.639758 2.849599
v -0.912196 2.002225 2.849599
v -0.912196 1.639758 2.487132
v -0.912196 2.002225 2.487132
v -1.274663 2.002225 -1.028673
v -1.274663 1.639758 -1.028673
v -1.274663 2.002225 -0.666206
v -1.274663 1.639758 -0.666206
v -0.912196 1.630307 -0.628257
v -0.912196 1.992774 -0.628257
v -0.912196 1.630307 -0.990724
v -0.912196 1.992774 -0.990724
v -0.912196 1.639758 -0.666206
v -0.912196 2.002225 -0.666206
v -0.912196 1.639758 -1.028673
v -0.912196 2.002225 -1.028673
v 4.386304 1.639758 2.849599
v 4.386304 2.002225 2.849599
v 4.386304 1.639758 2.487132
v 4.386304 2.002225 2.487132
v 4.748771 1.639758 2.849599
v 4.748771 2.002225 2.849599
v 4.748771 1.639758 2.487132
v 4.748771 2.002225 2.487132
v 4.386304 2.002225 -1.028673
v 4.386304 1.639758 -1.028673
v 4.386304 2.002225 -0.666206
v 4.386304 1.639758 -0.666206
v 4.748771 1.639758 -0.666206
v 4.748771 2.002225 -0.666206
v 4.748771 1.639758 -1.028673
v 4.748771 2.002225 -1.028673
vt 0.375000 0.000000
vt 0.625000 0.000000
vt 0.625000 0.250000
vt 0.375000 0.250000
vt 0.625000 0.500000
vt 0.375000 0.500000
vt 0.625000 0.750000
vt 0.375000 0.750000
vt 0.625000 1.000000
vt 0.375000 1.000000
vt 0.125000 0.500000
vt 0.125000 0.750000
vt 0.875000 0.500000
vt 0.875000 0.750000
vt 0.375000 0.750000
vt 0.625000 0.750000
vt 0.625000 1.000000
vt 0.375000 1.000000
vt 0.375000 0.500000
vt 0.625000 0.500000
vt 0.375000 0.500000
vt 0.625000 0.500000
vt 0.625000 0.750000
vt 0.375000 0.750000
vt 0.375000 0.250000
vt 0.625000 0.250000
vt 0.375000 0.000000
vt 0.625000 0.000000
vt 0.125000 0.500000
vt 0.125000 0.750000
vt 0.875000 0.500000
vt 0.875000 0.750000
vt 0.375000 0.000000
vt 0.625000 0.000000
vt 0.625000 0.250000
vt 0.375000 0.250000
vt 0.625000 0.500000
vt 0.375000 0.500000
vt 0.625000 0.750000
vt 0.375000 0.750000
vt 0.625000 1.000000
vt 0.375000 1.000000
vt 0.125000 0.500000
vt 0.125000 0.750000
vt 0.875000 0.500000
vt 0.875000 0.750000
vt 0.375000 0.750000
vt 0.625000 0.750000
vt 0.625000 1.000000
vt 0.375000 1.000000
vt 0.375000 0.500000
vt 0.625000 0.500000
vt 0.375000 0.250000
vt 0.625000 0.250000
vt 0.375000 0.000000
vt 0.625000 0.000000
vt 0.125000 0.500000
vt 0.125000 0.750000
vt 0.875000 0.500000
vt 0.875000 0.750000
vn -1.0000 0.0000 0.0000
vn 0.0000 0.0000 -1.0000
vn 1.0000 0.0000 0.0000
vn 0.0000 0.0000 1.0000
vn 0.0000 -1.0000 0.0000
vn 0.0000 1.0000 0.0000
usemtl None
s off
f 131/185/81 132/186/81 134/187/81 133/188/81
f 133/188/82 134/187/82 138/189/82 137/190/82
f 137/190/83 138/189/83 136/191/83 135/192/83
f 135/192/84 136/191/84 132/193/84 131/194/84
f 133/195/85 137/190/85 135/192/85 131/196/85
f 138/189/86 134/197/86 132/198/86 136/191/86
f 147/199/84 148/200/84 141/201/84 142/202/84
f 149/203/83 150/204/83 148/200/83 147/199/83
f 145/205/83 146/206/83 144/207/83 143/208/83
f 140/209/82 139/210/82 150/204/82 149/203/82
f 142/211/81 141/212/81 139/210/81 140/209/81
f 140/213/85 149/203/85 147/199/85 142/214/85
f 150/204/86 139/215/86 141/216/86 148/200/86
f 151/217/81 152/218/81 154/219/81 153/220/81
f 153/220/82 154/219/82 158/221/82 157/222/82
f 157/222/83 158/221/83 156/223/83 155/224/83
f 155/224/84 156/223/84 152/225/84 151/226/84
f 153/227/85 157/222/85 155/224/85 151/228/85
f 158/221/86 154/229/86 152/230/86 156/223/86
f 163/231/84 164/232/84 161/233/84 162/234/84
f 165/235/83 166/236/83 164/232/83 163/231/83
f 160/237/82 159/238/82 166/236/82 165/235/82
f 162/239/81 161/240/81 159/238/81 160/237/81
f 160/241/85 165/235/85 163/231/85 162/242/85
f 166/236/86 159/243/86 161/244/86 164/232/86
o Cube.005_Cube.006
v 3.206522 -0.975794 2.974308
v 3.206522 1.858466 2.974308
v 3.206522 -0.975794 2.680467
v 3.206522 1.858466 2.680467
v 3.500362 -0.975794 2.974308
v 3.500362 1.858466 2.974308
v 3.500362 -0.975794 2.680467
v 3.500362 1.858466 2.680467
v -0.911584 0.477844 2.976176
v 1.358180 0.477844 2.968120
v -0.912267 0.477159 2.682337
v 1.357497 0.477159 2.674281
v -0.911582 0.184005 2.976861
v 1.358181 0.184005 2.968806
v -0.912265 0.183319 2.683022
v 1.357498 0.183319 2.674967
vt 0.375000 0.000000
vt 0.625000 0.000000
vt 0.625000 0.250000
vt 0.375000 0.250000
vt 0.625000 0.500000
vt 0.375000 0.500000
vt 0.625000 0.750000
vt 0.375000 0.750000
vt 0.625000 1.000000
vt 0.375000 1.000000
vt 0.125000 0.500000
vt 0.125000 0.750000
vt 0.875000 0.500000
vt 0.875000 0.750000
vt 0.375000 0.000000
vt 0.625000 0.000000
vt 0.625000 0.250000
vt 0.375000 0.250000
vt 0.625000 0.500000
vt 0.375000 0.500000
vt 0.625000 0.750000
vt 0.375000 0.750000
vt 0.625000 1.000000
vt 0.375000 1.000000
vt 0.125000 0.500000
vt 0.125000 0.750000
vt 0.875000 0.500000
vt 0.875000 0.750000
vn -1.0000 0.0000 0.0000
vn 0.0000 0.0000 -1.0000
vn 1.0000 0.0000 0.0000
vn 0.0000 0.0000 1.0000
vn 0.0000 -1.0000 0.0000
vn 0.0000 1.0000 0.0000
vn -0.0000 1.0000 -0.0023
vn -0.0035 -0.0023 -1.0000
vn 0.0000 -1.0000 0.0023
vn 0.0035 0.0023 1.0000
vn -1.0000 -0.0000 0.0023
vn 1.0000 0.0000 -0.0023
usemtl None
s off
f 167/245/87 168/246/87 170/247/87 169/248/87
f 169/248/88 170/247/88 174/249/88 173/250/88
f 173/250/89 174/249/89 172/251/89 171/252/89
f 171/252/90 172/251/90 168/253/90 167/254/90
f 169/255/91 173/250/91 171/252/91 167/256/91
f 174/249/92 170/257/92 168/258/92 172/251/92
f 175/259/93 176/260/93 178/261/93 177/262/93
f 177/262/94 178/261/94 182/263/94 181/264/94
f 181/264/95 182/263/95 180/265/95 179/266/95
f 179/266/96 180/265/96 176/267/96 175/268/96
f 177/269/97 181/264/97 179/266/97 175/270/97
f 182/263/98 178/271/98 176/272/98 180/265/98
o Cube.006_Cube.007
v 4.287380 0.992280 0.934136
v 4.348264 1.024388 0.934136
v 4.287380 0.992280 0.038384
v 4.348264 1.024388 0.038384
v 4.634677 -0.977336 0.934136
v 4.695560 -0.945227 0.934136
v 4.634677 -0.977336 0.038384
v 4.695560 -0.945227 0.038384
vt 0.375000 0.000000
vt 0.625000 0.000000
vt 0.625000 0.250000
vt 0.375000 0.250000
vt 0.625000 0.500000
vt 0.375000 0.500000
vt 0.625000 0.750000
vt 0.375000 0.750000
vt 0.625000 1.000000
vt 0.375000 1.000000
vt 0.125000 0.500000
vt 0.125000 0.750000
vt 0.875000 0.500000
vt 0.875000 0.750000
vn -0.4665 0.8845 0.0000
vn 0.0000 0.0000 -1.0000
vn 0.4665 -0.8845 0.0000
vn 0.0000 0.0000 1.0000
vn -0.9848 -0.1736 0.0000
vn 0.9848 0.1736 0.0000
usemtl None
s off
f 183/273/99 184/274/99 186/275/99 185/276/99
f 185/276/100 186/275/100 190/277/100 189/278/100
f 189/278/101 190/277/101 188/279/101 187/280/101
f 187/280/102 188/279/102 184/281/102 183/282/102
f 185/283/103 189/278/103 187/280/103 183/284/103
f 190/277/104 186/285/104 184/286/104 188/279/104
